<?xml version="1.0" encoding="utf-8"?>
<svg xmlns="http://www.w3.org/2000/svg" style="margin: auto; background: rgb(241, 242, 243); display: block; shape-rendering: auto;" width="280" height="250" preserveAspectRatio="xMidYMid">
<style type="text/css">
  text {
    text-anchor: middle; font-size: 80px; opacity: 0;
  }
</style>
<g style="transform-origin:140px 125px;transform:scale(1)">
<g transform="translate(140,125)">
  <g transform="translate(0,0)"><g class="path" style="opacity: 1; transform-origin: -106.54px -6.34131px; animation: 1.66667s linear -0.942857s infinite normal forwards running blink-c0e96b2b-7e5f-489f-9268-16806154ae98;"><path d="M32.07 0L5.59 0L5.59-56.02L10.63-56.02L10.63-4.80L32.07-4.80L32.07 0" fill="#6a6a6a" stroke="none" stroke-width="none" transform="translate(-125.36996459960938,21.668686741420196)" style="fill: rgb(106, 106, 106);"></path></g><g class="path" style="opacity: 1; transform-origin: -70.35px -6.34131px; animation: 1.66667s linear -0.785714s infinite normal forwards running blink-c0e96b2b-7e5f-489f-9268-16806154ae98;"><path d="M70.78-12.97L70.78-12.97L70.78-12.97Q70.78-10.12 69.71-7.62L69.71-7.62L69.71-7.62Q68.63-5.12 66.76-3.24L66.76-3.24L66.76-3.24Q64.88-1.37 62.38-0.29L62.38-0.29L62.38-0.29Q59.88 0.78 57.03 0.78L57.03 0.78L53.05 0.78L53.05 0.78Q50.20 0.78 47.68-0.29L47.68-0.29L47.68-0.29Q45.16-1.37 43.28-3.24L43.28-3.24L43.28-3.24Q41.41-5.12 40.33-7.62L40.33-7.62L40.33-7.62Q39.26-10.12 39.26-12.97L39.26-12.97L39.26-43.05L39.26-43.05Q39.26-45.90 40.33-48.40L40.33-48.40L40.33-48.40Q41.41-50.90 43.28-52.77L43.28-52.77L43.28-52.77Q45.16-54.65 47.68-55.72L47.68-55.72L47.68-55.72Q50.20-56.80 53.05-56.80L53.05-56.80L57.03-56.80L57.03-56.80Q59.88-56.80 62.38-55.72L62.38-55.72L62.38-55.72Q64.88-54.65 66.76-52.77L66.76-52.77L66.76-52.77Q68.63-50.90 69.71-48.40L69.71-48.40L69.71-48.40Q70.78-45.90 70.78-43.05L70.78-43.05L70.78-12.97zM65.74-12.97L65.74-43.05L65.74-43.05Q65.74-44.92 65.04-46.54L65.04-46.54L65.04-46.54Q64.34-48.16 63.13-49.38L63.13-49.38L63.13-49.38Q61.91-50.59 60.29-51.29L60.29-51.29L60.29-51.29Q58.67-51.99 56.80-51.99L56.80-51.99L53.28-51.99L53.28-51.99Q51.41-51.99 49.79-51.29L49.79-51.29L49.79-51.29Q48.16-50.59 46.93-49.38L46.93-49.38L46.93-49.38Q45.70-48.16 45-46.54L45-46.54L45-46.54Q44.30-44.92 44.30-43.05L44.30-43.05L44.30-12.97L44.30-12.97Q44.30-11.09 45-9.47L45-9.47L45-9.47Q45.70-7.85 46.93-6.62L46.93-6.62L46.93-6.62Q48.16-5.39 49.79-4.69L49.79-4.69L49.79-4.69Q51.41-3.98 53.28-3.98L53.28-3.98L56.80-3.98L56.80-3.98Q58.67-3.98 60.29-4.69L60.29-4.69L60.29-4.69Q61.91-5.39 63.13-6.62L63.13-6.62L63.13-6.62Q64.34-7.85 65.04-9.47L65.04-9.47L65.04-9.47Q65.74-11.09 65.74-12.97L65.74-12.97" fill="#6a6a6a" stroke="none" stroke-width="none" transform="translate(-125.36996459960938,21.668686741420196)" style="fill: rgb(106, 106, 106);"></path></g><g class="path" style="opacity: 1; transform-origin: -30.41px -6.34131px; animation: 1.66667s linear -0.628571s infinite normal forwards running blink-c0e96b2b-7e5f-489f-9268-16806154ae98;"><path d="M107.54 0L103.83-13.05L86.09-13.05L82.42 0L77.19 0L93.59-56.02L96.25-56.02L112.73 0L107.54 0zM94.80-43.67L87.46-17.85L102.50-17.85L95.12-43.67L94.96-45.74L94.80-43.67" fill="#6a6a6a" stroke="none" stroke-width="none" transform="translate(-125.36996459960938,21.668686741420196)" style="fill: rgb(106, 106, 106);"></path></g><g class="path" style="opacity: 1; transform-origin: 10.315px -6.34131px; animation: 1.66667s linear -0.471429s infinite normal forwards running blink-c0e96b2b-7e5f-489f-9268-16806154ae98;"><path d="M151.45-13.75L151.45-13.75L151.45-13.75Q151.45-10.90 150.37-8.40L150.37-8.40L150.37-8.40Q149.30-5.90 147.42-4.02L147.42-4.02L147.42-4.02Q145.55-2.15 143.03-1.07L143.03-1.07L143.03-1.07Q140.51 0 137.66 0L137.66 0L119.92 0L119.92-56.02L137.66-56.02L137.66-56.02Q140.51-56.02 143.03-54.94L143.03-54.94L143.03-54.94Q145.55-53.87 147.42-51.99L147.42-51.99L147.42-51.99Q149.30-50.12 150.37-47.60L150.37-47.60L150.37-47.60Q151.45-45.08 151.45-42.23L151.45-42.23L151.45-13.75zM146.41-13.75L146.41-42.23L146.41-42.23Q146.41-44.10 145.70-45.72L145.70-45.72L145.70-45.72Q145-47.34 143.77-48.57L143.77-48.57L143.77-48.57Q142.54-49.80 140.92-50.51L140.92-50.51L140.92-50.51Q139.30-51.21 137.42-51.21L137.42-51.21L124.96-51.21L124.96-4.80L137.42-4.80L137.42-4.80Q139.30-4.80 140.92-5.51L140.92-5.51L140.92-5.51Q142.54-6.21 143.77-7.42L143.77-7.42L143.77-7.42Q145-8.63 145.70-10.25L145.70-10.25L145.70-10.25Q146.41-11.88 146.41-13.75L146.41-13.75" fill="#6a6a6a" stroke="none" stroke-width="none" transform="translate(-125.36996459960938,21.668686741420196)" style="fill: rgb(106, 106, 106);"></path></g><g class="path" style="opacity: 1; transform-origin: 40.59px -6.34131px; animation: 1.66667s linear -0.314286s infinite normal forwards running blink-c0e96b2b-7e5f-489f-9268-16806154ae98;"><path d="M168.48 0L163.44 0L163.44-56.02L168.48-56.02L168.48 0" fill="#6a6a6a" stroke="none" stroke-width="none" transform="translate(-125.36996459960938,21.668686741420196)" style="fill: rgb(106, 106, 106);"></path></g><g class="path" style="opacity: 1; transform-origin: 71.68px -6.34131px; animation: 1.66667s linear -0.157143s infinite normal forwards running blink-c0e96b2b-7e5f-489f-9268-16806154ae98;"><path d="M212.81 0L210.16 0L186.80-40.78L186.33-43.20L186.33 0L181.29 0L181.29-56.02L183.91-56.02L207.27-15.20L207.77-12.81L207.77-56.02L212.81-56.02L212.81 0" fill="#6a6a6a" stroke="none" stroke-width="none" transform="translate(-125.36996459960938,21.668686741420196)" style="fill: rgb(106, 106, 106);"></path></g><g class="path" style="opacity: 1; transform-origin: 115.195px -6.34131px; animation: 1.66667s linear 0s infinite normal forwards running blink-c0e96b2b-7e5f-489f-9268-16806154ae98;"><path d="M256.33-29.45L256.33 0L254.73 0L251.80-4.49L251.80-4.49Q249.96-2.07 247.34-0.64L247.34-0.64L247.34-0.64Q244.73 0.78 241.52 0.78L241.52 0.78L238.59 0.78L238.59 0.78Q235.74 0.78 233.22-0.29L233.22-0.29L233.22-0.29Q230.70-1.37 228.83-3.24L228.83-3.24L228.83-3.24Q226.95-5.12 225.88-7.62L225.88-7.62L225.88-7.62Q224.80-10.12 224.80-12.97L224.80-12.97L224.80-43.05L224.80-43.05Q224.80-45.90 225.88-48.40L225.88-48.40L225.88-48.40Q226.95-50.90 228.83-52.77L228.83-52.77L228.83-52.77Q230.70-54.65 233.22-55.72L233.22-55.72L233.22-55.72Q235.74-56.80 238.59-56.80L238.59-56.80L242.58-56.80L242.58-56.80Q245.43-56.80 247.93-55.72L247.93-55.72L247.93-55.72Q250.43-54.65 252.30-52.77L252.30-52.77L252.30-52.77Q254.18-50.90 255.25-48.40L255.25-48.40L255.25-48.40Q256.33-45.90 256.33-43.05L256.33-43.05L256.33-40.78L251.29-40L251.29-43.05L251.29-43.05Q251.29-44.92 250.59-46.54L250.59-46.54L250.59-46.54Q249.88-48.16 248.67-49.38L248.67-49.38L248.67-49.38Q247.46-50.59 245.84-51.29L245.84-51.29L245.84-51.29Q244.22-51.99 242.34-51.99L242.34-51.99L238.83-51.99L238.83-51.99Q236.95-51.99 235.33-51.29L235.33-51.29L235.33-51.29Q233.71-50.59 232.48-49.38L232.48-49.38L232.48-49.38Q231.25-48.16 230.55-46.54L230.55-46.54L230.55-46.54Q229.84-44.92 229.84-43.05L229.84-43.05L229.84-12.97L229.84-12.97Q229.84-11.09 230.55-9.47L230.55-9.47L230.55-9.47Q231.25-7.85 232.48-6.62L232.48-6.62L232.48-6.62Q233.71-5.39 235.33-4.69L235.33-4.69L235.33-4.69Q236.95-3.98 238.83-3.98L238.83-3.98L242.34-3.98L242.34-3.98Q244.22-3.98 245.84-4.69L245.84-4.69L245.84-4.69Q247.46-5.39 248.67-6.62L248.67-6.62L248.67-6.62Q249.88-7.85 250.59-9.47L250.59-9.47L250.59-9.47Q251.29-11.09 251.29-12.97L251.29-12.97L251.29-24.65L242.34-24.65L242.34-29.45L256.33-29.45" fill="#6a6a6a" stroke="none" stroke-width="none" transform="translate(-125.36996459960938,21.668686741420196)" style="fill: rgb(106, 106, 106);"></path></g></g>
</g>
</g>
<style id="blink-c0e96b2b-7e5f-489f-9268-16806154ae98" data-anikit="">@keyframes blink-c0e96b2b-7e5f-489f-9268-16806154ae98 {
  0% { opacity: 1; }
  49.75% { opacity: 1; }
  50.25% { opacity: 0; }
  99.5% { opacity: 0; }
  100% { opacity: 1; }
}</style></svg>